<?xml version="1.0" standalone="no"?>
<!DOCTYPE svg PUBLIC "-//W3C//DTD SVG 20010904//EN"
 "http://www.w3.org/TR/2001/REC-SVG-20010904/DTD/svg10.dtd">
<svg version="1.0" xmlns="http://www.w3.org/2000/svg"
 width="1200.000000pt" height="1200.000000pt" viewBox="0 0 1200.000000 1200.000000"
 preserveAspectRatio="xMidYMid meet">

<g transform="translate(0.000000,1200.000000) scale(0.100000,-0.100000)"
fill="#000000" stroke="none">
<path d="M5938 9645 c-35 -11 -79 -44 -175 -131 -172 -156 -203 -189 -203
-217 0 -32 23 -60 321 -384 141 -153 351 -381 468 -508 l211 -230 -33 -30
c-52 -46 -745 -687 -1321 -1220 l-118 -110 -27 31 c-14 17 -143 158 -286 314
-143 156 -353 386 -468 512 -132 145 -217 230 -233 234 -14 4 -37 1 -50 -5
-36 -16 -300 -259 -329 -302 -53 -80 -57 -188 -10 -277 13 -26 63 -90 109
-142 l85 -95 -82 -75 c-168 -153 -197 -198 -197 -310 0 -90 24 -135 128 -247
48 -52 98 -107 111 -123 l23 -30 -125 -122 c-113 -111 -127 -128 -141 -177
-20 -68 -20 -113 -1 -179 14 -48 29 -68 142 -192 l23 -26 -88 -89 c-98 -100
-120 -146 -109 -230 18 -126 150 -245 272 -245 70 0 126 29 204 105 37 36 72
65 78 65 5 0 38 -31 72 -70 80 -90 157 -130 253 -132 90 -1 129 20 267 147
l115 104 130 -133 c142 -145 177 -166 275 -166 80 0 115 17 206 98 48 42 107
94 131 115 l43 38 108 -110 c93 -94 116 -112 168 -131 66 -24 136 -22 200 4
33 14 169 130 293 250 99 96 104 85 -155 366 -170 185 -473 516 -755 825 -10
10 -17 22 -16 26 3 6 107 103 788 729 200 184 434 399 520 478 l155 143 34
-38 c19 -21 132 -144 250 -273 119 -129 295 -320 391 -425 96 -104 209 -225
250 -268 102 -106 111 -106 227 -1 265 239 278 256 278 374 0 101 -22 144
-129 263 -47 52 -86 100 -86 105 0 5 49 53 109 106 134 118 165 171 165 275 0
97 -24 140 -155 281 l-113 122 44 41 c211 191 232 220 238 334 5 94 -21 152
-112 250 l-68 73 83 77 c94 89 118 133 119 214 0 67 -24 117 -90 185 -56 59
-109 84 -180 84 -75 0 -124 -25 -207 -104 -39 -36 -73 -66 -76 -66 -2 0 -39
36 -82 79 -93 96 -149 124 -245 125 -89 1 -120 -17 -258 -145 l-117 -108 -125
129 c-91 95 -138 135 -172 150 -59 26 -158 29 -210 7 -20 -8 -93 -65 -161
-126 l-125 -110 -90 97 c-55 60 -110 109 -141 125 -63 35 -155 44 -223 22z
m145 -164 c20 -10 58 -43 85 -72 73 -82 789 -861 1132 -1233 91 -99 192 -209
225 -245 138 -152 414 -451 480 -521 133 -140 164 -176 174 -204 16 -40 13
-77 -7 -108 -21 -34 -209 -201 -220 -196 -5 2 -235 251 -512 553 -276 303
-555 606 -619 675 -380 408 -1061 1148 -1061 1154 0 2 52 52 115 110 125 116
140 122 208 87z m751 -2 c13 -6 80 -73 148 -148 67 -74 235 -257 373 -406 137
-148 301 -326 364 -395 63 -69 144 -156 181 -195 168 -176 324 -353 336 -383
19 -44 9 -96 -25 -130 -15 -15 -67 -63 -115 -107 l-88 -79 -31 34 c-17 19
-339 373 -717 785 -378 413 -702 767 -720 788 -39 44 -44 34 92 159 88 80 101
88 137 88 22 0 51 -5 65 -11z m793 -56 c18 -10 96 -88 174 -173 78 -85 212
-231 298 -324 l156 -170 0 -59 0 -59 -100 -94 c-55 -52 -107 -98 -115 -103
-11 -7 -41 20 -126 113 -62 66 -227 247 -369 401 l-257 280 49 43 c178 159
182 162 221 162 20 0 52 -8 69 -17z m614 -52 c58 -58 54 -78 -35 -169 l-74
-76 -66 69 c-36 39 -65 75 -66 81 0 6 32 39 71 73 87 76 113 79 170 22z
m-1502 -1391 c34 -39 61 -74 59 -79 -2 -4 -217 -205 -478 -446 -601 -554 -804
-741 -903 -833 -44 -40 -80 -72 -82 -70 -1 2 -30 34 -64 72 -33 37 -61 72 -61
76 0 8 148 146 786 736 154 142 367 339 472 437 106 97 196 177 200 177 4 0
36 -32 71 -70z m-2543 -426 c77 -82 234 -253 349 -380 116 -126 384 -418 596
-649 212 -231 412 -449 444 -485 33 -36 89 -96 125 -135 92 -98 461 -503 499
-547 l32 -36 -96 -94 c-112 -108 -138 -123 -190 -114 -49 9 -82 44 -730 751
-126 138 -277 302 -336 365 -58 63 -270 293 -469 510 -200 217 -414 450 -476
518 -116 125 -143 173 -129 225 7 26 215 228 231 224 7 -1 74 -70 150 -153z
m189 -1009 c186 -203 413 -451 504 -550 91 -99 224 -243 295 -320 71 -77 172
-186 224 -242 l94 -102 -64 -59 c-148 -138 -167 -152 -204 -152 -71 0 -51 -21
-845 845 -588 641 -618 675 -625 713 -11 57 14 95 126 196 l105 95 26 -27 c15
-15 178 -193 364 -397z m-39 -767 l368 -401 -54 -49 c-180 -162 -176 -158
-214 -158 -20 0 -50 7 -66 15 -31 16 -590 619 -622 670 -22 36 -23 76 -4 113
11 22 210 212 221 212 1 0 168 -181 371 -402z m-402 -372 l66 -74 -72 -66
c-92 -84 -116 -87 -177 -21 -43 47 -48 63 -30 97 11 21 129 137 140 138 4 0
36 -33 73 -74z"/>
<path d="M2790 4161 l0 -411 110 0 110 0 0 124 0 124 108 3 c95 4 112 7 153
31 198 116 188 401 -16 511 -37 20 -57 22 -252 25 l-213 3 0 -410z m380 182
c18 -22 21 -37 17 -72 -7 -59 -25 -71 -109 -71 l-68 0 0 85 0 85 69 0 c64 0
71 -2 91 -27z"/>
<path d="M3635 4173 c-81 -219 -150 -404 -152 -410 -4 -10 23 -13 115 -13
l119 0 24 80 23 81 110 -3 110 -3 24 -77 23 -78 120 0 119 0 -13 33 c-7 17
-76 202 -153 409 l-139 378 -91 0 -91 0 -148 -397z m279 10 l33 -123 -73 0
c-41 0 -74 3 -74 6 0 5 45 165 67 239 7 24 5 31 47 -122z"/>
<path d="M4450 4160 l0 -410 295 0 295 0 0 100 0 100 -185 0 -185 0 0 310 0
310 -110 0 -110 0 0 -410z"/>
<path d="M5250 4160 l0 -410 290 0 290 0 0 100 0 100 -180 0 -180 0 0 60 0 59
148 3 147 3 3 93 3 92 -151 0 -150 0 0 55 0 55 175 0 175 0 0 100 0 100 -285
0 -285 0 0 -410z"/>
<path d="M6194 4549 c-104 -40 -167 -133 -168 -249 -1 -124 56 -183 232 -241
123 -40 152 -55 152 -77 0 -62 -128 -54 -271 18 l-55 28 -47 -94 c-26 -52 -47
-97 -47 -100 0 -8 100 -49 170 -69 91 -26 256 -27 329 -1 67 23 132 85 149
142 20 68 15 154 -11 205 -32 60 -94 100 -229 144 -62 21 -119 42 -126 48 -7
6 -12 22 -10 36 3 25 5 26 73 26 58 0 82 -6 138 -32 l67 -32 46 91 c25 49 44
91 42 93 -14 12 -95 47 -152 64 -90 28 -211 28 -282 0z"/>
<path d="M6810 4470 l0 -100 120 0 120 0 0 -310 0 -310 110 0 110 0 0 310 0
310 120 0 120 0 0 100 0 100 -350 0 -350 0 0 -100z"/>
<path d="M7710 4161 l0 -411 110 0 110 0 0 125 0 125 43 0 43 0 78 -125 77
-125 125 0 125 0 -12 23 c-7 12 -47 79 -90 148 l-77 127 29 28 c16 16 42 53
56 83 67 137 8 309 -131 384 -38 20 -58 22 -263 25 l-223 3 0 -410z m399 183
c12 -15 21 -41 21 -59 0 -18 -9 -44 -21 -59 -19 -24 -26 -26 -100 -26 l-79 0
0 85 0 85 79 0 c74 0 81 -2 100 -26z"/>
<path d="M8835 4553 c-18 -46 -283 -761 -289 -780 -7 -23 -7 -23 113 -23 81 0
121 4 121 11 0 6 9 42 21 80 l21 69 109 0 108 0 24 -77 23 -78 118 -3 118 -3
-6 23 c-3 13 -70 196 -149 408 l-143 385 -91 3 c-79 2 -91 0 -98 -15z m160
-464 l7 -29 -71 0 c-39 0 -71 4 -71 8 0 10 58 219 66 242 5 13 48 -124 69
-221z"/>
<path d="M3580 3020 l0 -410 50 0 50 0 2 183 3 182 183 3 182 2 0 40 0 40
-185 0 -185 0 0 135 0 135 218 2 217 3 0 45 0 45 -267 3 -268 2 0 -410z"/>
<path d="M4317 3424 c-4 -4 -7 -189 -7 -411 l0 -403 55 0 55 0 -2 408 -3 407
-45 3 c-25 2 -49 0 -53 -4z"/>
<path d="M4594 3416 c-3 -8 -4 -29 -2 -48 l3 -33 143 -3 142 -3 0 -359 0 -360
50 0 50 0 0 360 0 360 140 0 140 0 0 50 0 50 -330 0 c-275 0 -332 -2 -336 -14z"/>
<path d="M5447 3423 c-4 -3 -7 -188 -7 -410 l0 -403 55 0 55 0 2 306 3 306
245 -306 245 -306 43 0 42 0 0 410 0 410 -50 0 -50 0 -2 -317 -3 -317 -252
317 c-241 303 -254 317 -286 317 -19 0 -37 -3 -40 -7z"/>
<path d="M6397 3423 c-4 -3 -7 -188 -7 -410 l0 -403 280 0 280 0 0 45 0 45
-225 0 -225 0 0 140 0 140 190 0 190 0 0 45 0 45 -190 0 -190 0 0 130 0 130
218 2 217 3 0 45 0 45 -266 3 c-146 1 -268 -1 -272 -5z"/>
<path d="M7282 3411 c-96 -33 -161 -119 -162 -214 0 -103 53 -162 182 -201 46
-14 115 -34 153 -45 98 -29 131 -52 146 -100 10 -34 9 -44 -7 -78 -27 -55 -70
-73 -171 -73 -93 0 -188 28 -249 75 -19 15 -36 25 -38 24 -1 -2 -13 -22 -26
-43 -23 -38 -23 -39 -4 -53 10 -9 50 -30 87 -48 160 -78 365 -68 460 23 46 43
61 81 61 152 0 133 -63 183 -304 240 -92 23 -155 52 -170 79 -15 30 -12 104 6
130 55 77 239 80 349 5 41 -27 40 -28 71 29 14 27 14 27 -33 57 -26 17 -70 37
-97 45 -69 21 -189 19 -254 -4z"/>
<path d="M8065 3416 c-89 -28 -132 -64 -161 -131 -22 -54 -21 -146 3 -187 35
-60 70 -76 323 -149 93 -26 140 -68 140 -123 0 -87 -57 -126 -183 -126 -89 0
-153 18 -229 64 l-57 34 -21 -33 c-11 -18 -20 -38 -20 -44 0 -18 89 -70 157
-91 251 -77 463 12 463 196 0 64 -13 100 -48 137 -40 43 -88 64 -234 102 -73
20 -144 44 -158 54 -83 60 -52 183 55 212 79 22 206 -2 277 -52 l26 -19 21 34
c12 18 21 37 21 42 0 15 -82 61 -139 78 -64 19 -180 20 -236 2z"/>
</g>
</svg>
